HIERARCHY
ROOT Hips
{
 OFFSET 0.000000 0.000000 0.000000
 CHANNELS 6 Xposition Yposition Zposition Yrotation Xrotation Zrotation
 JOINT Chest
 {
  OFFSET 0.000000 9.585900 0.002600
  CHANNELS 3 Yrotation Xrotation Zrotation
  JOINT Chest2
  {
   OFFSET 0.000000 9.601200 -0.005300
   CHANNELS 3 Yrotation Xrotation Zrotation
   JOINT Chest3
   {
    OFFSET 0.000000 9.561800 0.000000
    CHANNELS 3 Yrotation Xrotation Zrotation
    JOINT Chest4
    {
     OFFSET 0.000000 9.552100 0.000000
     CHANNELS 3 Yrotation Xrotation Zrotation
     JOINT Neck
     {
      OFFSET 0.000000 14.453000 0.000000
      CHANNELS 3 Yrotation Xrotation Zrotation
      JOINT Head
      {
       OFFSET 0.000000 8.936500 -0.011300
       CHANNELS 3 Yrotation Xrotation Zrotation
       End Site
       {
        OFFSET 0.000000 17.073600 -0.006000
       }
      }
     }
     JOINT RightCollar
     {
      OFFSET -2.921100 9.558500 0.000000
      CHANNELS 3 Yrotation Xrotation Zrotation
      JOINT RightShoulder
      {
       OFFSET -13.519700 0.000000 0.000000
       CHANNELS 3 Yrotation Xrotation Zrotation
       JOINT RightElbow
       {
        OFFSET 0.000000 -29.696600 0.000000
        CHANNELS 3 Yrotation Xrotation Zrotation
        JOINT RightWrist
        {
         OFFSET 0.000000 -24.004700 0.000000
         CHANNELS 3 Yrotation Xrotation Zrotation
         End Site
         {
          OFFSET 0.000000 -17.728500 0.000000
         }
        }
       }
      }
     }
     JOINT LeftCollar
     {
      OFFSET 2.921100 9.558500 0.000000
      CHANNELS 3 Yrotation Xrotation Zrotation
      JOINT LeftShoulder
      {
       OFFSET 13.519700 0.000000 0.000000
       CHANNELS 3 Yrotation Xrotation Zrotation
       JOINT LeftElbow
       {
        OFFSET 0.000000 -29.696600 0.000000
        CHANNELS 3 Yrotation Xrotation Zrotation
        JOINT LeftWrist
        {
         OFFSET 0.000000 -24.004700 0.000000
         CHANNELS 3 Yrotation Xrotation Zrotation
         End Site
         {
          OFFSET 0.000000 -17.728500 0.000000
         }
        }
       }
      }
     }
    }
   }
  }
 }
 JOINT RightHip
 {
  OFFSET -7.771700 -0.012900 -0.001300
  CHANNELS 3 Yrotation Xrotation Zrotation
  JOINT RightKnee
  {
   OFFSET 0.000000 -40.869800 0.001200
   CHANNELS 3 Yrotation Xrotation Zrotation
   JOINT RightAnkle
   {
    OFFSET 0.000000 -39.717900 0.002100
    CHANNELS 3 Yrotation Xrotation Zrotation
    JOINT RightToe
    {
     OFFSET 0.000000 -4.965400 11.033500
     CHANNELS 3 Yrotation Xrotation Zrotation
     End Site
     {
      OFFSET 0.000000 -1.423100 5.872300
     }
    }
   }
  }
 }
 JOINT LeftHip
 {
  OFFSET 7.771700 -0.012900 -0.001300
  CHANNELS 3 Yrotation Xrotation Zrotation
  JOINT LeftKnee
  {
   OFFSET 0.000000 -40.869800 0.001200
   CHANNELS 3 Yrotation Xrotation Zrotation
   JOINT LeftAnkle
   {
    OFFSET 0.000000 -39.717900 0.002100
    CHANNELS 3 Yrotation Xrotation Zrotation
    JOINT LeftToe
    {
     OFFSET 0.000000 -4.965400 11.033500
     CHANNELS 3 Yrotation Xrotation Zrotation
     End Site
     {
      OFFSET 0.000000 -1.423100 5.872300
     }
    }
   }
  }
 }
}
MOTION
Frames: 12
Frame Time: 0.008333
0.000000 85.388000 0.000000 0.000000 -5.767877 0.000000 0.000000 11.653817 0.000000 0.000000 -5.885947 0.000000 0.000000 -0.000000 0.000000 0.000000 -0.000000 0.000000 0.000000 12.528835 0.000000 0.000000 0.711642 0.000000 0.000000 -0.000000 0.000000 0.000000 0.000000 -90.000000 0.000000 -2.309062 0.000000 0.000000 2.309062 0.000000 0.000000 -0.000000 0.000000 0.000000 -0.000000 90.000000 0.000000 -2.309062 0.000000 0.000000 2.309062 0.000000 0.000000 8.520406 0.000000 0.000000 1.905762 0.000000 -0.000000 -4.658285 0.000000 0.000000 -0.000000 0.000000 0.000000 8.520406 0.000000 0.000000 1.905762 0.000000 -0.000000 -4.658285 0.000000 0.000000 -0.000000 0.000000
-94.754752 62.124389 18.387633 173.037770 -49.658304 -0.890976 5.416113 25.428703 2.026381 0.737389 4.107048 0.266133 1.168702 6.580268 0.457882 4.083677 20.807391 1.976633 2.587150 16.290766 5.374336 2.907969 -5.542963 9.064730 6.412452 3.719780 5.804197 -9.837031 -33.934829 -10.181003 -120.559007 -54.788959 145.826277 4.185445 -2.016622 -18.731369 -10.229995 1.398422 0.345635 2.356147 -30.617269 11.798959 147.421871 -61.187735 -156.451737 9.048584 -2.196385 17.882619 3.059112 -17.453214 -3.452012 -2.425825 60.038064 -5.948115 2.263615 -4.447159 10.551115 0.170244 -0.576842 0.079349 -4.378721 -13.476814 4.111616 32.690249 75.575858 35.362005 1.995051 -12.108643 -6.536200 0.400558 0.820971 0.181202
-94.761674 62.126858 18.398797 173.027939 -49.690998 -0.866389 5.387218 25.468878 2.007447 0.746688 4.117299 0.263258 1.163629 6.596317 0.457923 4.072435 20.832559 1.973241 2.569279 16.282371 5.359528 2.770749 -5.431999 9.095049 6.244308 3.888604 5.732588 -10.143537 -33.487661 -10.226676 -120.423403 -54.674762 145.905482 4.183480 -2.023823 -18.753576 -10.071040 1.566098 0.428039 2.891134 -30.138905 11.608024 147.470266 -61.261358 -156.547211 9.070517 -2.172357 17.938035 3.069295 -17.419394 -3.464057 -2.429107 60.022721 -5.962093 2.258446 -4.431564 10.552249 0.177391 -0.578037 0.085144 -4.378412 -13.436531 4.080477 32.668202 75.543718 35.339103 1.994570 -12.102501 -6.544010 0.398902 0.836551 0.182172
-94.768609 62.129719 18.412782 173.016632 -49.729093 -0.845943 5.379297 25.508363 1.995885 0.720452 4.139907 0.271560 1.188097 6.589958 0.447963 4.051592 20.878345 1.977182 2.501960 16.335621 5.358248 2.705982 -5.392774 9.090423 6.080476 4.056585 5.655861 -10.407649 -33.016958 -10.279466 -120.264067 -54.582435 145.955912 4.184991 -2.030190 -18.772061 -9.912969 1.734065 0.510630 3.383662 -29.644135 11.430469 147.472568 -61.377621 -156.597100 9.110067 -2.148747 18.006684 3.080025 -17.380008 -3.470467 -2.429220 60.004821 -5.969800 2.245576 -4.415288 10.546630 0.187097 -0.577712 0.095207 -4.370587 -13.395706 4.060554 32.635682 75.517960 35.309724 1.978530 -12.086180 -6.551425 0.405779 0.839116 0.187573
-94.778531 62.131482 18.430077 173.010244 -49.760737 -0.816875 5.352030 25.543401 1.970273 0.734599 4.142837 0.266251 1.182472 6.603386 0.450570 4.025528 20.930497 1.978902 2.443265 16.381429 5.357195 2.652093 -5.367458 9.081925 5.922924 4.219808 5.572658 -10.639506 -32.523925 -10.334371 -120.074488 -54.512658 145.976480 4.191509 -2.040220 -18.783825 -9.753228 1.898689 0.594465 3.831812 -29.133576 11.262932 147.403528 -61.528639 -156.587790 9.160618 -2.121972 18.098139 3.091455 -17.346131 -3.494417 -2.418854 59.979825 -5.965102 2.230838 -4.391971 10.546263 0.198525 -0.576204 0.100560 -4.367197 -13.359997 4.019116 32.612549 75.471844 35.290534 1.972765 -12.061238 -6.559323 0.400608 0.847727 0.187667
-94.784945 62.136484 18.447470 172.976059 -49.818981 -0.789949 5.350072 25.600100 1.964324 0.733911 4.158711 0.266564 1.181245 6.627275 0.451151 4.010315 20.968341 1.978863 2.408833 16.398267 5.349025 2.592017 -5.334656 9.078521 5.770544 4.380158 5.484186 -10.839809 -32.012809 -10.392620 -119.856380 -54.468264 145.971403 4.196670 -2.058016 -18.788103 -9.591507 2.057372 0.676297 4.229067 -28.606243 11.109337 147.241134 -61.703694 -156.496598 9.217622 -2.081731 18.208567 3.112692 -17.278133 -3.483447 -2.400102 59.932736 -5.964545 2.216048 -4.356620 10.557204 0.202086 -0.575306 0.101779 -4.350040 -13.296970 4.002120 32.584092 75.431908 35.261609 1.988190 -12.016433 -6.557063 0.381649 0.835019 0.177467
-94.793955 62.142629 18.465450 172.953261 -49.886794 -0.758736 5.331143 25.663156 1.944228 0.733082 4.176713 0.267062 1.148532 6.698428 0.460744 4.023828 20.970086 1.964973 2.380452 16.409358 5.337921 2.596181 -5.363831 9.054009 5.622373 4.534433 5.386371 -11.009550 -31.484710 -10.451404 -119.617910 -54.451149 145.948079 4.196027 -2.083834 -18.787560 -9.434976 2.205149 0.748069 4.571362 -28.064981 10.977799 146.977796 -61.898901 -156.316326 9.290281 -2.020556 18.332577 3.131072 -17.201614 -3.485915 -2.394961 59.895706 -5.973035 2.195300 -4.334754 10.557141 0.215460 -0.570149 0.111008 -4.334436 -13.221899 3.971027 32.526779 75.388379 35.205399 2.003751 -11.978213 -6.559055 0.365072 0.831345 0.173092
-94.799281 62.151259 18.483393 172.923420 -49.973572 -0.745446 5.324645 25.742892 1.951580 0.732791 4.196381 0.267647 1.149028 6.734836 0.466522 4.011202 21.013411 1.964819 2.357578 16.415095 5.324202 2.597827 -5.398826 9.026678 5.476597 4.676751 5.277017 -11.146868 -30.939551 -10.511195 -119.355352 -54.457083 145.900563 4.192560 -2.113145 -18.781836 -9.289306 2.337607 0.805177 4.868373 -27.512517 10.870471 146.602467 -62.111194 -156.049933 9.383320 -1.940473 18.473796 3.147883 -17.111492 -3.469157 -2.389433 59.866800 -5.971807 2.192284 -4.303269 10.557947 0.223743 -0.581562 0.112983 -4.318033 -13.129741 3.954874 32.533724 75.357589 35.211291 2.086661 -11.945968 -6.586004 0.374164 0.828397 0.181795
-94.802610 62.161474 18.501518 172.903780 -50.071457 -0.752870 5.319540 25.836247 1.980541 0.700785 4.237030 0.276892 1.176669 6.750944 0.456427 3.996446 21.059793 1.965648 2.340422 16.417517 5.308388 2.501006 -5.320087 9.021344 5.333834 4.809723 5.162913 -11.247645 -30.382904 -10.579937 -119.052596 -54.479038 145.815069 4.187794 -2.139282 -18.765574 -9.152146 2.455557 0.849762 5.133779 -26.949566 10.784694 146.101452 -62.333236 -155.696758 9.500302 -1.845690 18.628318 3.162973 -17.005633 -3.434686 -2.405447 59.830677 -5.986670 2.187781 -4.270208 10.561619 0.233206 -0.593471 0.114824 -4.311547 -13.026480 3.948038 32.548072 75.325014 35.223318 2.199291 -11.904058 -6.626084 0.411186 0.823803 0.198259
-94.811777 62.168963 18.522076 172.889946 -50.146684 -0.732284 5.256230 25.904738 1.960683 0.730751 4.265677 0.271449 1.174874 6.787229 0.458609 3.980127 21.108447 1.966680 2.328612 16.418786 5.290282 2.464817 -5.294075 8.997240 5.197270 4.938807 5.051634 -11.315994 -29.822420 -10.661769 -118.693633 -54.510790 145.684883 4.183143 -2.158502 -18.743010 -9.022944 2.561996 0.884382 5.378337 -26.379704 10.718350 145.471350 -62.558168 -155.256109 9.643203 -1.738031 18.789666 3.178065 -16.922608 -3.437546 -2.409301 59.792946 -5.994991 2.177731 -4.241462 10.564061 0.253517 -0.609555 0.118609 -4.299727 -12.947377 3.913731 32.537538 75.278923 35.220460 2.196756 -11.864565 -6.626871 0.397659 0.817509 0.191226
-94.821879 62.174987 18.544409 172.826132 -50.208724 -0.668978 5.256702 25.963618 1.943029 0.729740 4.290338 0.272813 1.173047 6.824174 0.460788 3.963480 21.157737 1.967565 2.320707 16.419580 5.269794 2.457449 -5.292719 8.962036 5.069889 5.065748 4.947429 -11.357956 -29.263394 -10.757298 -118.263060 -54.551625 145.500484 4.180749 -2.177123 -18.726318 -8.903357 2.661495 0.912159 5.614502 -25.810966 10.667406 144.708253 -62.781609 -154.729267 9.805703 -1.623710 18.965670 3.223551 -16.846282 -3.449482 -2.377583 59.734703 -5.969664 2.158909 -4.227223 10.565823 0.259307 -0.589289 0.122228 -4.256665 -12.873488 3.868683 32.525825 75.224711 35.215613 2.178749 -11.848769 -6.595144 0.321519 0.828034 0.155919
-94.830522 62.181708 18.566745 172.792775 -50.273257 -0.637292 5.241875 26.025025 1.933884 0.745509 4.304706 0.270120 1.155177 6.869927 0.468420 3.947232 21.205757 1.968429 2.314759 16.420071 5.247225 2.454314 -5.292044 8.922288 4.952990 5.189926 4.853662 -11.376743 -28.709166 -10.869089 -117.745140 -54.607132 145.245833 4.178191 -2.209238 -18.717172 -8.790125 2.758482 0.937146 5.838358 -25.248113 10.627873 143.821540 -62.999199 -154.125061 9.983767 -1.511575 19.158643 3.246068 -16.771492 -3.451868 -2.352341 59.686247 -5.948687 2.143478 -4.201265 10.564121 0.267231 -0.584332 0.126614 -4.232595 -12.801302 3.842512 32.493750 75.176916 35.189276 2.144404 -11.823043 -6.580102 0.290348 0.829656 0.142182
